G04*
G04 #@! TF.GenerationSoftware,Altium Limited,Altium Designer,22.2.1 (43)*
G04*
G04 Layer_Color=16711935*
%FSLAX24Y24*%
%MOIN*%
G70*
G04*
G04 #@! TF.SameCoordinates,757E67FC-675A-4625-AC2D-E40298A33DAC*
G04*
G04*
G04 #@! TF.FilePolarity,Positive*
G04*
G01*
G75*
%ADD39C,0.0472*%
D39*
X15128Y11978D02*
X15051Y12029D01*
X14961Y12047D01*
X19134Y7874D02*
X19116Y7964D01*
X19065Y8041D01*
X19134Y7874D02*
X19116Y7964D01*
X19065Y8041D01*
X15128Y11978D02*
X15051Y12029D01*
X14961Y12047D01*
X18898Y-236D02*
X18988Y-218D01*
X19065Y-167D01*
X19116Y-90D01*
X19134Y0D01*
X18898Y-236D02*
X18988Y-218D01*
X19065Y-167D01*
X19116Y-90D01*
X19134Y0D01*
X3937Y12047D02*
X3847Y12029D01*
X3770Y11978D01*
X3937Y12047D02*
X3847Y12029D01*
X3770Y11978D01*
X-167Y8041D02*
X-218Y7964D01*
X-236Y7874D01*
Y0D02*
X-218Y-90D01*
X-167Y-167D01*
X-90Y-218D01*
X0Y-236D01*
X-167Y8041D02*
X-218Y7964D01*
X-236Y7874D01*
Y0D02*
X-218Y-90D01*
X-167Y-167D01*
X-90Y-218D01*
X0Y-236D01*
X15128Y11978D02*
X19065Y8041D01*
X19134Y0D02*
Y7874D01*
X3937Y12047D02*
X14961D01*
X-167Y8041D02*
X3770Y11978D01*
X0Y-236D02*
X18898D01*
X-236Y0D02*
Y7874D01*
M02*
