G04*
G04 #@! TF.GenerationSoftware,Altium Limited,Altium Designer,22.2.1 (43)*
G04*
G04 Layer_Color=16711935*
%FSLAX24Y24*%
%MOIN*%
G70*
G04*
G04 #@! TF.SameCoordinates,757E67FC-675A-4625-AC2D-E40298A33DAC*
G04*
G04*
G04 #@! TF.FilePolarity,Negative*
G04*
G01*
G75*
%ADD15C,0.0659*%
%ADD16C,0.1122*%
%ADD25R,0.0413X0.0709*%
%ADD26R,0.0709X0.0413*%
%ADD30R,0.0650X0.1398*%
%ADD31R,0.0453X0.1437*%
%ADD32R,0.0279X0.0579*%
%ADD33R,0.1398X0.0650*%
%ADD34R,0.1437X0.0453*%
D15*
X12716Y900D02*
D03*
Y1900D02*
D03*
Y2900D02*
D03*
Y3900D02*
D03*
Y4900D02*
D03*
Y5900D02*
D03*
Y6900D02*
D03*
Y7900D02*
D03*
X6284D02*
D03*
Y6900D02*
D03*
Y5900D02*
D03*
Y3900D02*
D03*
Y2900D02*
D03*
Y1900D02*
D03*
Y900D02*
D03*
Y4900D02*
D03*
X14173Y9843D02*
D03*
X4724D02*
D03*
D16*
X8350Y9800D02*
D03*
X10318D02*
D03*
D25*
X10348Y6200D02*
D03*
X11352D02*
D03*
D26*
X13900Y6398D02*
D03*
Y7402D02*
D03*
X14000Y2948D02*
D03*
Y3952D02*
D03*
X4800Y5102D02*
D03*
Y4098D02*
D03*
X4900Y1552D02*
D03*
Y548D02*
D03*
D30*
X8037Y2486D02*
D03*
X10675D02*
D03*
D31*
X8963Y4750D02*
D03*
X9750D02*
D03*
D32*
X8950Y6950D02*
D03*
X8570Y6150D02*
D03*
X9330D02*
D03*
X14100Y4950D02*
D03*
X14480Y5750D02*
D03*
X13720D02*
D03*
X14120Y1500D02*
D03*
X14500Y2300D02*
D03*
X13740D02*
D03*
X4400Y6550D02*
D03*
X4020Y5750D02*
D03*
X4780D02*
D03*
X4500Y2950D02*
D03*
X4120Y2150D02*
D03*
X4880D02*
D03*
D33*
X18156Y4481D02*
D03*
Y7119D02*
D03*
Y781D02*
D03*
Y3419D02*
D03*
X694Y7119D02*
D03*
Y4481D02*
D03*
Y3419D02*
D03*
Y781D02*
D03*
D34*
X15892Y5406D02*
D03*
Y6194D02*
D03*
Y1706D02*
D03*
Y2494D02*
D03*
X2958Y6194D02*
D03*
Y5406D02*
D03*
Y2494D02*
D03*
Y1706D02*
D03*
M02*
