G04*
G04 #@! TF.GenerationSoftware,Altium Limited,Altium Designer,22.2.1 (43)*
G04*
G04 Layer_Color=32896*
%FSLAX24Y24*%
%MOIN*%
G70*
G04*
G04 #@! TF.SameCoordinates,757E67FC-675A-4625-AC2D-E40298A33DAC*
G04*
G04*
G04 #@! TF.FilePolarity,Positive*
G04*
G01*
G75*
%ADD10C,0.0100*%
%ADD35C,0.0098*%
%ADD36C,0.0060*%
%ADD37C,0.0039*%
%ADD38C,0.0079*%
G36*
X8000Y450D02*
X7842D01*
X7686Y1122D01*
X7805D01*
X7909Y584D01*
X7922D01*
X8014Y1122D01*
X8142D01*
X8000Y450D01*
D02*
G37*
G36*
X11186Y614D02*
Y597D01*
X11185Y581D01*
X11183Y567D01*
X11182Y556D01*
X11180Y547D01*
X11179Y540D01*
X11178Y536D01*
Y534D01*
X11176Y523D01*
X11172Y513D01*
X11167Y505D01*
X11164Y497D01*
X11160Y492D01*
X11157Y488D01*
X11155Y485D01*
X11154Y484D01*
X11148Y478D01*
X11140Y472D01*
X11127Y464D01*
X11121Y461D01*
X11116Y459D01*
X11113Y457D01*
X11112D01*
X11102Y455D01*
X11090Y453D01*
X11080Y452D01*
X11070Y451D01*
X11061Y450D01*
X10748D01*
Y983D01*
X10878D01*
Y532D01*
X11006D01*
X11016Y533D01*
X11024Y534D01*
X11029Y535D01*
X11030Y536D01*
X11031D01*
X11038Y540D01*
X11043Y544D01*
X11046Y547D01*
X11047Y549D01*
X11051Y557D01*
X11053Y567D01*
X11054Y570D01*
Y574D01*
X11055Y576D01*
Y577D01*
X11056Y584D01*
Y592D01*
X11057Y606D01*
Y613D01*
Y618D01*
Y622D01*
Y623D01*
Y983D01*
X11186D01*
Y614D01*
D02*
G37*
G36*
X11700Y450D02*
X11571D01*
X11550Y591D01*
X11402D01*
X11380Y450D01*
X11251D01*
X11391Y1122D01*
X11561D01*
X11700Y450D01*
D02*
G37*
G36*
X10510Y981D02*
X10524Y979D01*
X10538Y977D01*
X10550Y974D01*
X10561Y971D01*
X10572Y967D01*
X10580Y964D01*
X10588Y961D01*
X10595Y957D01*
X10601Y954D01*
X10606Y950D01*
X10609Y949D01*
X10612Y947D01*
X10613Y945D01*
X10614D01*
X10622Y937D01*
X10629Y929D01*
X10635Y919D01*
X10640Y910D01*
X10648Y889D01*
X10654Y869D01*
X10657Y851D01*
X10658Y842D01*
X10658Y835D01*
X10659Y829D01*
Y825D01*
Y822D01*
Y821D01*
Y450D01*
X10530D01*
Y801D01*
Y813D01*
X10529Y823D01*
Y832D01*
X10528Y839D01*
Y845D01*
X10527Y850D01*
Y852D01*
Y853D01*
X10526Y861D01*
X10524Y866D01*
X10522Y872D01*
X10521Y875D01*
X10519Y879D01*
X10517Y881D01*
X10516Y883D01*
X10509Y889D01*
X10500Y893D01*
X10495Y895D01*
X10493Y896D01*
X10492D01*
X10479Y898D01*
X10466Y900D01*
X10257D01*
Y983D01*
X10496D01*
X10510Y981D01*
D02*
G37*
G36*
X10064D02*
X10075Y980D01*
X10084Y978D01*
X10092Y976D01*
X10098Y975D01*
X10102Y974D01*
X10103D01*
X10112Y970D01*
X10120Y965D01*
X10128Y961D01*
X10133Y956D01*
X10139Y951D01*
X10142Y949D01*
X10144Y946D01*
X10145Y945D01*
X10151Y937D01*
X10156Y928D01*
X10160Y919D01*
X10164Y911D01*
X10166Y903D01*
X10168Y897D01*
X10170Y893D01*
Y891D01*
X10173Y878D01*
X10175Y864D01*
X10176Y851D01*
X10177Y838D01*
X10177Y826D01*
Y817D01*
Y814D01*
Y811D01*
Y810D01*
Y809D01*
Y625D01*
Y607D01*
X10177Y591D01*
X10175Y577D01*
X10174Y565D01*
X10172Y555D01*
X10171Y548D01*
X10170Y543D01*
Y542D01*
X10166Y530D01*
X10163Y519D01*
X10158Y510D01*
X10154Y503D01*
X10151Y496D01*
X10148Y492D01*
X10146Y489D01*
X10145Y488D01*
X10139Y481D01*
X10131Y475D01*
X10125Y469D01*
X10117Y466D01*
X10112Y462D01*
X10107Y460D01*
X10103Y459D01*
X10103Y458D01*
X10092Y456D01*
X10081Y454D01*
X10070Y452D01*
X10060Y451D01*
X10051D01*
X10044Y450D01*
X9847D01*
X9835Y451D01*
X9825Y453D01*
X9816Y455D01*
X9808Y456D01*
X9803Y457D01*
X9799Y458D01*
X9798D01*
X9789Y462D01*
X9780Y467D01*
X9772Y472D01*
X9767Y477D01*
X9761Y481D01*
X9758Y484D01*
X9756Y487D01*
X9755Y488D01*
X9748Y496D01*
X9744Y505D01*
X9739Y514D01*
X9735Y522D01*
X9733Y530D01*
X9732Y536D01*
X9730Y540D01*
Y542D01*
X9727Y555D01*
X9725Y568D01*
X9723Y582D01*
X9722Y596D01*
X9721Y607D01*
Y617D01*
Y620D01*
Y623D01*
Y624D01*
Y625D01*
Y809D01*
Y826D01*
X9722Y842D01*
X9724Y856D01*
X9725Y868D01*
X9727Y878D01*
X9729Y886D01*
X9730Y889D01*
Y891D01*
X9733Y903D01*
X9737Y913D01*
X9742Y923D01*
X9745Y931D01*
X9749Y937D01*
X9753Y941D01*
X9755Y944D01*
X9756Y945D01*
X9762Y952D01*
X9770Y958D01*
X9776Y963D01*
X9783Y967D01*
X9789Y970D01*
X9794Y972D01*
X9797Y974D01*
X9798D01*
X9808Y976D01*
X9819Y979D01*
X9829Y981D01*
X9839Y982D01*
X9847Y983D01*
X10052D01*
X10064Y981D01*
D02*
G37*
G36*
X9493D02*
X9507Y979D01*
X9521Y977D01*
X9533Y974D01*
X9544Y971D01*
X9554Y967D01*
X9562Y964D01*
X9571Y961D01*
X9577Y957D01*
X9584Y954D01*
X9588Y950D01*
X9592Y949D01*
X9595Y947D01*
X9596Y945D01*
X9597D01*
X9605Y937D01*
X9611Y929D01*
X9618Y919D01*
X9622Y910D01*
X9631Y889D01*
X9636Y869D01*
X9639Y851D01*
X9640Y842D01*
X9641Y835D01*
X9642Y829D01*
Y825D01*
Y822D01*
Y821D01*
Y450D01*
X9512D01*
Y801D01*
Y813D01*
X9511Y823D01*
Y832D01*
X9511Y839D01*
Y845D01*
X9510Y850D01*
Y852D01*
Y853D01*
X9509Y861D01*
X9507Y866D01*
X9505Y872D01*
X9503Y875D01*
X9501Y879D01*
X9499Y881D01*
X9499Y883D01*
X9491Y889D01*
X9483Y893D01*
X9477Y895D01*
X9475Y896D01*
X9474D01*
X9462Y898D01*
X9449Y900D01*
X9240D01*
Y983D01*
X9478D01*
X9493Y981D01*
D02*
G37*
G36*
X9087Y900D02*
X8888D01*
X8879Y899D01*
X8870Y898D01*
X8864Y895D01*
X8859Y892D01*
X8855Y889D01*
X8852Y888D01*
X8851Y886D01*
X8850Y885D01*
X8846Y878D01*
X8843Y870D01*
X8841Y861D01*
X8840Y851D01*
X8839Y843D01*
X8838Y836D01*
Y831D01*
Y830D01*
Y829D01*
Y783D01*
X9034D01*
X9044Y782D01*
X9053Y781D01*
X9061Y779D01*
X9068Y777D01*
X9075Y774D01*
X9079Y772D01*
X9082Y771D01*
X9083Y770D01*
X9091Y765D01*
X9098Y760D01*
X9104Y753D01*
X9110Y748D01*
X9115Y743D01*
X9118Y739D01*
X9120Y736D01*
X9121Y735D01*
X9131Y716D01*
X9136Y707D01*
X9140Y699D01*
X9142Y691D01*
X9144Y686D01*
X9146Y682D01*
Y680D01*
X9151Y657D01*
X9153Y646D01*
X9153Y637D01*
Y628D01*
X9154Y621D01*
Y617D01*
Y616D01*
Y603D01*
X9153Y590D01*
X9152Y579D01*
X9150Y568D01*
X9149Y561D01*
X9147Y555D01*
X9146Y551D01*
Y549D01*
X9142Y538D01*
X9139Y528D01*
X9134Y518D01*
X9130Y511D01*
X9127Y505D01*
X9124Y500D01*
X9122Y497D01*
X9121Y496D01*
X9108Y482D01*
X9102Y476D01*
X9096Y471D01*
X9091Y468D01*
X9087Y465D01*
X9084Y463D01*
X9083Y462D01*
X9075Y458D01*
X9067Y456D01*
X9058Y453D01*
X9050Y452D01*
X9043Y451D01*
X9039Y450D01*
X8709D01*
Y818D01*
Y836D01*
X8710Y851D01*
X8711Y864D01*
X8713Y876D01*
X8714Y886D01*
X8716Y893D01*
X8717Y897D01*
Y899D01*
X8720Y910D01*
X8723Y920D01*
X8728Y929D01*
X8732Y937D01*
X8735Y942D01*
X8738Y946D01*
X8740Y949D01*
X8741Y949D01*
X8747Y956D01*
X8755Y962D01*
X8762Y966D01*
X8769Y970D01*
X8775Y972D01*
X8780Y974D01*
X8783Y975D01*
X8784D01*
X8795Y978D01*
X8806Y980D01*
X8816Y981D01*
X8826Y982D01*
X8835Y983D01*
X9087D01*
Y900D01*
D02*
G37*
G36*
X7563Y1036D02*
X7464D01*
Y532D01*
X7618D01*
Y450D01*
X7193D01*
Y532D01*
X7336D01*
Y1122D01*
X7563D01*
Y1036D01*
D02*
G37*
%LPC*%
G36*
X11483Y1038D02*
X11470D01*
X11414Y675D01*
X11538D01*
X11483Y1038D01*
D02*
G37*
G36*
X10000Y900D02*
X9904D01*
X9893Y899D01*
X9885Y896D01*
X9879Y893D01*
X9873Y889D01*
X9869Y885D01*
X9867Y882D01*
X9866Y879D01*
X9865Y878D01*
X9861Y869D01*
X9858Y859D01*
X9856Y847D01*
X9855Y836D01*
Y826D01*
X9854Y817D01*
Y811D01*
Y810D01*
Y809D01*
Y625D01*
Y608D01*
X9856Y593D01*
X9857Y580D01*
X9859Y571D01*
X9861Y563D01*
X9863Y558D01*
X9864Y555D01*
X9865Y554D01*
X9869Y546D01*
X9875Y542D01*
X9881Y538D01*
X9888Y535D01*
X9894Y533D01*
X9899Y532D01*
X9995D01*
X10005Y533D01*
X10014Y536D01*
X10020Y539D01*
X10026Y543D01*
X10030Y547D01*
X10033Y550D01*
X10034Y553D01*
X10035Y554D01*
X10039Y563D01*
X10041Y574D01*
X10043Y586D01*
X10044Y598D01*
X10045Y609D01*
X10046Y617D01*
Y621D01*
Y624D01*
Y625D01*
Y626D01*
Y809D01*
X10045Y826D01*
X10044Y840D01*
X10042Y852D01*
X10041Y862D01*
X10039Y869D01*
X10037Y875D01*
X10035Y877D01*
Y878D01*
X10030Y886D01*
X10024Y890D01*
X10017Y894D01*
X10011Y897D01*
X10004Y899D01*
X10000Y900D01*
D02*
G37*
G36*
X8953Y702D02*
X8839D01*
Y532D01*
X8995D01*
X9001Y533D01*
X9006Y536D01*
X9011Y541D01*
X9015Y546D01*
X9018Y554D01*
X9020Y561D01*
X9024Y578D01*
X9027Y594D01*
X9028Y602D01*
Y609D01*
X9029Y615D01*
Y619D01*
Y622D01*
Y623D01*
X9028Y638D01*
Y643D01*
X9027Y649D01*
X9026Y654D01*
Y656D01*
X9025Y658D01*
Y659D01*
X9021Y669D01*
X9017Y678D01*
X9014Y682D01*
X9012Y684D01*
X9004Y690D01*
X8995Y694D01*
X8992Y695D01*
X8989Y696D01*
X8987Y697D01*
X8986D01*
X8972Y700D01*
X8958Y701D01*
X8953Y702D01*
D02*
G37*
%LPD*%
D10*
X11950Y9100D02*
Y9300D01*
Y9200D01*
X12550D01*
X12450Y9100D01*
X11950Y10000D02*
Y9600D01*
X12350Y10000D01*
X12450D01*
X12550Y9900D01*
Y9700D01*
X12450Y9600D01*
X12550Y10200D02*
X12150D01*
X11950Y10400D01*
X12150Y10600D01*
X12550D01*
D35*
X9799Y5656D02*
X9725Y5698D01*
Y5613D01*
X9799Y5656D01*
X15035Y6194D02*
X14962Y6236D01*
Y6151D01*
X15035Y6194D01*
Y2494D02*
X14962Y2536D01*
Y2451D01*
X15035Y2494D01*
X3913Y5406D02*
X3839Y5449D01*
Y5364D01*
X3913Y5406D01*
Y1706D02*
X3839Y1749D01*
Y1664D01*
X3913Y1706D01*
D36*
X9540Y6670D02*
X9451Y6631D01*
X9420Y6540D01*
X13510Y5230D02*
X13599Y5269D01*
X13630Y5360D01*
X13530Y1780D02*
X13619Y1819D01*
X13650Y1910D01*
X4990Y6270D02*
X4901Y6231D01*
X4870Y6140D01*
X5090Y2670D02*
X5001Y2631D01*
X4970Y2540D01*
X9540Y6490D02*
Y6670D01*
Y6830D01*
X8360D02*
X8710D01*
X8360Y6490D02*
Y6830D01*
X9190D02*
X9540D01*
X13510Y5230D02*
Y5410D01*
Y5070D02*
Y5230D01*
X14340Y5070D02*
X14690D01*
Y5410D01*
X13510Y5070D02*
X13860D01*
X13530Y1780D02*
Y1960D01*
Y1620D02*
Y1780D01*
X14360Y1620D02*
X14710D01*
Y1960D01*
X13530Y1620D02*
X13880D01*
X4990Y6090D02*
Y6270D01*
Y6430D01*
X3810D02*
X4160D01*
X3810Y6090D02*
Y6430D01*
X4640D02*
X4990D01*
X5090Y2490D02*
Y2670D01*
Y2830D01*
X3910D02*
X4260D01*
X3910Y2490D02*
Y2830D01*
X4740D02*
X5090D01*
X5150Y5950D02*
X5350D01*
X5400Y5900D01*
Y5800D01*
X5350Y5750D01*
X5150D01*
X5100Y5800D01*
Y5900D01*
X5200Y5850D02*
X5100Y5950D01*
Y5900D02*
X5150Y5950D01*
X5400Y6050D02*
X5100D01*
Y6250D01*
X5400Y6350D02*
Y6550D01*
Y6450D01*
X5100D01*
X9350Y7350D02*
Y7550D01*
X9400Y7600D01*
X9500D01*
X9550Y7550D01*
Y7350D01*
X9500Y7300D01*
X9400D01*
X9450Y7400D02*
X9350Y7300D01*
X9400D02*
X9350Y7350D01*
X9050Y7550D02*
X9100Y7600D01*
X9200D01*
X9250Y7550D01*
Y7500D01*
X9200Y7450D01*
X9100D01*
X9050Y7400D01*
Y7350D01*
X9100Y7300D01*
X9200D01*
X9250Y7350D01*
X8950Y7300D02*
Y7600D01*
X8800D01*
X8750Y7550D01*
Y7450D01*
X8800Y7400D01*
X8950D01*
X8450Y7600D02*
X8650D01*
Y7300D01*
X8450D01*
X8650Y7450D02*
X8550D01*
X8350Y7300D02*
Y7500D01*
X8250Y7600D01*
X8150Y7500D01*
Y7300D01*
Y7450D01*
X8350D01*
X8050Y7600D02*
Y7300D01*
Y7400D01*
X7850Y7600D01*
X8000Y7450D01*
X7850Y7300D01*
X7550Y7600D02*
X7750D01*
Y7300D01*
X7550D01*
X7750Y7450D02*
X7650D01*
X7450Y7300D02*
Y7600D01*
X7300D01*
X7250Y7550D01*
Y7450D01*
X7300Y7400D01*
X7450D01*
X7350D02*
X7250Y7300D01*
X14850Y5150D02*
X15050D01*
X15100Y5100D01*
Y5000D01*
X15050Y4950D01*
X14850D01*
X14800Y5000D01*
Y5100D01*
X14900Y5050D02*
X14800Y5150D01*
Y5100D02*
X14850Y5150D01*
X14800Y5250D02*
X15100D01*
Y5400D01*
X15050Y5450D01*
X14950D01*
X14900Y5400D01*
Y5250D01*
Y5350D02*
X14800Y5450D01*
X15100Y5550D02*
Y5750D01*
Y5650D01*
X14800D01*
X14870Y1700D02*
X15070D01*
X15120Y1650D01*
Y1550D01*
X15070Y1500D01*
X14870D01*
X14820Y1550D01*
Y1650D01*
X14920Y1600D02*
X14820Y1700D01*
Y1650D02*
X14870Y1700D01*
X14820Y1800D02*
X15120D01*
Y1950D01*
X15070Y2000D01*
X14970D01*
X14920Y1950D01*
Y1800D01*
Y1900D02*
X14820Y2000D01*
X15120Y2100D02*
X14820D01*
Y2250D01*
X14870Y2300D01*
X14920D01*
X14970Y2250D01*
Y2100D01*
Y2250D01*
X15020Y2300D01*
X15070D01*
X15120Y2250D01*
Y2100D01*
X5200Y2250D02*
X5400D01*
X5450Y2200D01*
Y2100D01*
X5400Y2050D01*
X5200D01*
X5150Y2100D01*
Y2200D01*
X5250Y2150D02*
X5150Y2250D01*
Y2200D02*
X5200Y2250D01*
X5450Y2350D02*
X5150D01*
Y2550D01*
X5450Y2650D02*
X5150D01*
Y2800D01*
X5200Y2850D01*
X5250D01*
X5300Y2800D01*
Y2650D01*
Y2800D01*
X5350Y2850D01*
X5400D01*
X5450Y2800D01*
Y2650D01*
X11280Y6690D02*
Y6990D01*
X11130D01*
X11080Y6940D01*
Y6840D01*
X11130Y6790D01*
X11280D01*
X11180D02*
X11080Y6690D01*
X10780Y6940D02*
X10830Y6990D01*
X10930D01*
X10980Y6940D01*
Y6890D01*
X10930Y6840D01*
X10830D01*
X10780Y6790D01*
Y6740D01*
X10830Y6690D01*
X10930D01*
X10980Y6740D01*
X14700Y7300D02*
X14400D01*
Y7150D01*
X14450Y7100D01*
X14550D01*
X14600Y7150D01*
Y7300D01*
Y7200D02*
X14700Y7100D01*
Y7000D02*
X14400D01*
Y6850D01*
X14450Y6800D01*
X14550D01*
X14600Y6850D01*
Y7000D01*
Y6900D02*
X14700Y6800D01*
X14400Y6700D02*
Y6500D01*
Y6600D01*
X14700D01*
X14800Y3800D02*
X14500D01*
Y3650D01*
X14550Y3600D01*
X14650D01*
X14700Y3650D01*
Y3800D01*
Y3700D02*
X14800Y3600D01*
Y3500D02*
X14500D01*
Y3350D01*
X14550Y3300D01*
X14650D01*
X14700Y3350D01*
Y3500D01*
Y3400D02*
X14800Y3300D01*
X14500Y3200D02*
X14800D01*
Y3050D01*
X14750Y3000D01*
X14700D01*
X14650Y3050D01*
Y3200D01*
Y3050D01*
X14600Y3000D01*
X14550D01*
X14500Y3050D01*
Y3200D01*
X4000Y4200D02*
X4300D01*
Y4350D01*
X4250Y4400D01*
X4150D01*
X4100Y4350D01*
Y4200D01*
Y4300D02*
X4000Y4400D01*
X4300Y4500D02*
X4000D01*
Y4700D01*
X4300Y4800D02*
Y5000D01*
Y4900D01*
X4000D01*
X4400Y1500D02*
X4100D01*
Y1350D01*
X4150Y1300D01*
X4250D01*
X4300Y1350D01*
Y1500D01*
Y1400D02*
X4400Y1300D01*
X4100Y1200D02*
X4400D01*
Y1000D01*
X4100Y900D02*
X4400D01*
Y750D01*
X4350Y700D01*
X4300D01*
X4250Y750D01*
Y900D01*
Y750D01*
X4200Y700D01*
X4150D01*
X4100Y750D01*
Y900D01*
X17000Y7800D02*
Y7500D01*
X16800D01*
X16500Y7800D02*
X16700D01*
Y7500D01*
X16500D01*
X16700Y7650D02*
X16600D01*
X16400Y7800D02*
Y7500D01*
X16250D01*
X16200Y7550D01*
Y7750D01*
X16250Y7800D01*
X16400D01*
X15800Y7500D02*
Y7800D01*
X15650D01*
X15600Y7750D01*
Y7650D01*
X15650Y7600D01*
X15800D01*
X15700D02*
X15600Y7500D01*
X15500Y7800D02*
X15300D01*
X15400D01*
Y7500D01*
X9550Y5800D02*
X9600Y5850D01*
X9700D01*
X9750Y5800D01*
Y5750D01*
X9700Y5700D01*
X9600D01*
X9550Y5650D01*
Y5600D01*
X9600Y5550D01*
X9700D01*
X9750Y5600D01*
X9450Y5550D02*
Y5850D01*
X9300D01*
X9250Y5800D01*
Y5700D01*
X9300Y5650D01*
X9450D01*
X8950Y5850D02*
X9150D01*
Y5550D01*
X8950D01*
X9150Y5700D02*
X9050D01*
X8850Y5550D02*
Y5750D01*
X8750Y5850D01*
X8650Y5750D01*
Y5550D01*
Y5700D01*
X8850D01*
X8550Y5850D02*
Y5550D01*
Y5650D01*
X8350Y5850D01*
X8500Y5700D01*
X8350Y5550D01*
X8050Y5850D02*
X8250D01*
Y5550D01*
X8050D01*
X8250Y5700D02*
X8150D01*
X7950Y5550D02*
Y5850D01*
X7800D01*
X7750Y5800D01*
Y5700D01*
X7800Y5650D01*
X7950D01*
X7850D02*
X7750Y5550D01*
X17100Y400D02*
Y100D01*
X16900D01*
X16600Y400D02*
X16800D01*
Y100D01*
X16600D01*
X16800Y250D02*
X16700D01*
X16500Y400D02*
Y100D01*
X16350D01*
X16300Y150D01*
Y350D01*
X16350Y400D01*
X16500D01*
X15900Y100D02*
Y400D01*
X15750D01*
X15700Y350D01*
Y250D01*
X15750Y200D01*
X15900D01*
X15800D02*
X15700Y100D01*
X15600Y400D02*
Y100D01*
X15450D01*
X15400Y150D01*
Y200D01*
X15450Y250D01*
X15600D01*
X15450D01*
X15400Y300D01*
Y350D01*
X15450Y400D01*
X15600D01*
X3450Y7850D02*
Y7550D01*
X3250D01*
X2950Y7850D02*
X3150D01*
Y7550D01*
X2950D01*
X3150Y7700D02*
X3050D01*
X2850Y7850D02*
Y7550D01*
X2700D01*
X2650Y7600D01*
Y7800D01*
X2700Y7850D01*
X2850D01*
X2250D02*
Y7550D01*
X2050D01*
X1950Y7850D02*
X1750D01*
X1850D01*
Y7550D01*
X3450Y400D02*
Y100D01*
X3250D01*
X2950Y400D02*
X3150D01*
Y100D01*
X2950D01*
X3150Y250D02*
X3050D01*
X2850Y400D02*
Y100D01*
X2700D01*
X2650Y150D01*
Y350D01*
X2700Y400D01*
X2850D01*
X2250D02*
Y100D01*
X2050D01*
X1950Y400D02*
Y100D01*
X1800D01*
X1750Y150D01*
Y200D01*
X1800Y250D01*
X1950D01*
X1800D01*
X1750Y300D01*
Y350D01*
X1800Y400D01*
X1950D01*
D37*
X7326Y8776D02*
X11342D01*
X7326D02*
Y10824D01*
X11342Y8776D02*
Y10824D01*
X7326D02*
X11342D01*
D38*
X8490Y1896D02*
X10222D01*
X7801Y3313D02*
Y4888D01*
X8116D01*
Y4258D02*
Y4888D01*
Y4258D02*
X8608D01*
X10104D02*
X10596D01*
Y4888D01*
X10911D01*
Y3313D02*
Y4888D01*
X10702Y5856D02*
X10998D01*
X10702Y6544D02*
X10998D01*
X14244Y6752D02*
Y7048D01*
X13556Y6752D02*
Y7048D01*
X14344Y3302D02*
Y3598D01*
X13656Y3302D02*
Y3598D01*
X4456Y4452D02*
Y4748D01*
X5144Y4452D02*
Y4748D01*
X4556Y902D02*
Y1198D01*
X5244Y902D02*
Y1198D01*
X18746Y4934D02*
Y6666D01*
X15754Y4245D02*
X17329D01*
X15754D02*
Y4560D01*
X16384D01*
Y5052D01*
Y6548D02*
Y7040D01*
X15754D02*
X16384D01*
X15754D02*
Y7355D01*
X17329D01*
X18746Y1234D02*
Y2966D01*
X15754Y545D02*
X17329D01*
X15754D02*
Y860D01*
X16384D01*
Y1352D01*
Y2848D02*
Y3340D01*
X15754D02*
X16384D01*
X15754D02*
Y3655D01*
X17329D01*
X104Y4934D02*
Y6666D01*
X1521Y7355D02*
X3096D01*
Y7040D02*
Y7355D01*
X2466Y7040D02*
X3096D01*
X2466Y6548D02*
Y7040D01*
Y4560D02*
Y5052D01*
Y4560D02*
X3096D01*
Y4245D02*
Y4560D01*
X1521Y4245D02*
X3096D01*
X104Y1234D02*
Y2966D01*
X1521Y3655D02*
X3096D01*
Y3340D02*
Y3655D01*
X2466Y3340D02*
X3096D01*
X2466Y2848D02*
Y3340D01*
Y860D02*
Y1352D01*
Y860D02*
X3096D01*
Y545D02*
Y860D01*
X1521Y545D02*
X3096D01*
M02*
