G04*
G04 #@! TF.GenerationSoftware,Altium Limited,Altium Designer,22.2.1 (43)*
G04*
G04 Layer_Color=32896*
%FSLAX24Y24*%
%MOIN*%
G70*
G04*
G04 #@! TF.SameCoordinates,757E67FC-675A-4625-AC2D-E40298A33DAC*
G04*
G04*
G04 #@! TF.FilePolarity,Positive*
G04*
G01*
G75*
%ADD38C,0.0079*%
G36*
X10850Y6204D02*
X10817D01*
Y6316D01*
X10774D01*
X10770Y6316D01*
X10767D01*
X10764Y6315D01*
X10762Y6315D01*
X10761D01*
X10760Y6315D01*
X10760D01*
X10754Y6313D01*
X10751Y6312D01*
X10749Y6311D01*
X10747Y6310D01*
X10746Y6309D01*
X10745Y6308D01*
X10744Y6308D01*
X10742Y6306D01*
X10739Y6303D01*
X10733Y6298D01*
X10731Y6295D01*
X10729Y6293D01*
X10728Y6292D01*
X10727Y6291D01*
X10724Y6286D01*
X10720Y6281D01*
X10716Y6275D01*
X10712Y6270D01*
X10708Y6264D01*
X10706Y6260D01*
X10705Y6259D01*
X10704Y6258D01*
X10703Y6257D01*
Y6257D01*
X10670Y6204D01*
X10629D01*
X10672Y6273D01*
X10677Y6280D01*
X10682Y6287D01*
X10687Y6292D01*
X10691Y6297D01*
X10694Y6301D01*
X10697Y6304D01*
X10699Y6306D01*
X10700Y6306D01*
X10703Y6308D01*
X10706Y6311D01*
X10712Y6315D01*
X10715Y6316D01*
X10718Y6318D01*
X10719Y6319D01*
X10720Y6319D01*
X10713Y6320D01*
X10707Y6321D01*
X10701Y6323D01*
X10696Y6324D01*
X10691Y6326D01*
X10687Y6328D01*
X10683Y6330D01*
X10679Y6332D01*
X10676Y6334D01*
X10673Y6336D01*
X10671Y6338D01*
X10669Y6339D01*
X10668Y6340D01*
X10667Y6341D01*
X10667Y6342D01*
X10666Y6342D01*
X10663Y6346D01*
X10660Y6349D01*
X10656Y6357D01*
X10653Y6365D01*
X10651Y6372D01*
X10649Y6378D01*
X10649Y6381D01*
Y6383D01*
X10649Y6385D01*
Y6386D01*
Y6387D01*
Y6387D01*
X10649Y6395D01*
X10650Y6402D01*
X10652Y6409D01*
X10654Y6414D01*
X10656Y6419D01*
X10657Y6422D01*
X10659Y6425D01*
X10659Y6425D01*
Y6425D01*
X10664Y6431D01*
X10668Y6436D01*
X10673Y6441D01*
X10677Y6444D01*
X10681Y6446D01*
X10684Y6448D01*
X10687Y6449D01*
X10687Y6449D01*
X10687D01*
X10691Y6450D01*
X10695Y6452D01*
X10703Y6453D01*
X10711Y6454D01*
X10719Y6456D01*
X10727Y6456D01*
X10730D01*
X10733Y6456D01*
X10850D01*
Y6204D01*
D02*
G37*
G36*
X10519Y6460D02*
X10527Y6459D01*
X10536Y6458D01*
X10542Y6456D01*
X10548Y6455D01*
X10550Y6454D01*
X10552Y6453D01*
X10554Y6453D01*
X10555Y6452D01*
X10556Y6452D01*
X10556D01*
X10563Y6448D01*
X10570Y6444D01*
X10575Y6440D01*
X10580Y6436D01*
X10583Y6432D01*
X10585Y6429D01*
X10587Y6427D01*
X10588Y6427D01*
Y6426D01*
X10591Y6420D01*
X10594Y6414D01*
X10596Y6408D01*
X10597Y6402D01*
X10597Y6398D01*
X10598Y6394D01*
Y6393D01*
Y6391D01*
Y6391D01*
Y6391D01*
X10598Y6385D01*
X10597Y6379D01*
X10595Y6373D01*
X10594Y6369D01*
X10592Y6365D01*
X10591Y6362D01*
X10590Y6360D01*
X10589Y6359D01*
X10586Y6354D01*
X10581Y6350D01*
X10577Y6346D01*
X10573Y6342D01*
X10569Y6339D01*
X10566Y6338D01*
X10564Y6336D01*
X10563Y6336D01*
X10563D01*
X10560Y6334D01*
X10557Y6333D01*
X10549Y6330D01*
X10541Y6328D01*
X10533Y6325D01*
X10526Y6323D01*
X10522Y6322D01*
X10519Y6322D01*
X10517Y6321D01*
X10515Y6320D01*
X10514Y6320D01*
X10514D01*
X10508Y6319D01*
X10502Y6317D01*
X10497Y6316D01*
X10493Y6315D01*
X10488Y6314D01*
X10485Y6312D01*
X10481Y6312D01*
X10479Y6311D01*
X10476Y6310D01*
X10474Y6310D01*
X10471Y6308D01*
X10470Y6308D01*
X10469Y6308D01*
X10464Y6306D01*
X10459Y6303D01*
X10455Y6300D01*
X10452Y6298D01*
X10450Y6296D01*
X10448Y6295D01*
X10447Y6294D01*
X10447Y6293D01*
X10444Y6290D01*
X10442Y6286D01*
X10441Y6283D01*
X10440Y6280D01*
X10440Y6277D01*
X10439Y6275D01*
Y6273D01*
Y6272D01*
X10440Y6268D01*
X10441Y6264D01*
X10442Y6260D01*
X10443Y6258D01*
X10445Y6255D01*
X10446Y6253D01*
X10446Y6251D01*
X10447Y6251D01*
X10450Y6247D01*
X10453Y6244D01*
X10457Y6242D01*
X10460Y6239D01*
X10463Y6238D01*
X10466Y6236D01*
X10468Y6236D01*
X10469Y6235D01*
X10474Y6233D01*
X10480Y6232D01*
X10486Y6231D01*
X10491Y6231D01*
X10495Y6230D01*
X10499Y6230D01*
X10502D01*
X10510Y6230D01*
X10517Y6231D01*
X10524Y6232D01*
X10530Y6233D01*
X10534Y6235D01*
X10538Y6236D01*
X10539Y6236D01*
X10540Y6237D01*
X10541Y6237D01*
X10541D01*
X10547Y6240D01*
X10552Y6243D01*
X10556Y6247D01*
X10560Y6250D01*
X10563Y6252D01*
X10565Y6255D01*
X10566Y6256D01*
X10566Y6257D01*
X10569Y6262D01*
X10571Y6267D01*
X10573Y6272D01*
X10574Y6277D01*
X10575Y6282D01*
X10576Y6285D01*
Y6286D01*
X10576Y6287D01*
Y6288D01*
Y6288D01*
X10608Y6285D01*
X10607Y6276D01*
X10605Y6267D01*
X10603Y6260D01*
X10601Y6253D01*
X10598Y6247D01*
X10597Y6245D01*
X10596Y6243D01*
X10595Y6242D01*
X10595Y6241D01*
X10594Y6240D01*
Y6240D01*
X10589Y6233D01*
X10583Y6227D01*
X10577Y6221D01*
X10571Y6217D01*
X10566Y6214D01*
X10561Y6212D01*
X10560Y6211D01*
X10559Y6210D01*
X10558Y6210D01*
X10558D01*
X10549Y6207D01*
X10539Y6204D01*
X10530Y6203D01*
X10521Y6201D01*
X10516Y6201D01*
X10513Y6200D01*
X10509D01*
X10506Y6200D01*
X10501D01*
X10491Y6200D01*
X10482Y6201D01*
X10473Y6203D01*
X10466Y6205D01*
X10461Y6207D01*
X10458Y6208D01*
X10456Y6208D01*
X10454Y6209D01*
X10453Y6209D01*
X10453Y6210D01*
X10452D01*
X10445Y6214D01*
X10438Y6218D01*
X10432Y6223D01*
X10427Y6227D01*
X10424Y6231D01*
X10421Y6234D01*
X10419Y6236D01*
X10419Y6237D01*
Y6237D01*
X10415Y6244D01*
X10412Y6251D01*
X10410Y6257D01*
X10409Y6263D01*
X10408Y6268D01*
X10407Y6272D01*
Y6273D01*
Y6274D01*
Y6275D01*
Y6275D01*
X10408Y6282D01*
X10409Y6289D01*
X10411Y6295D01*
X10412Y6300D01*
X10415Y6305D01*
X10416Y6308D01*
X10418Y6310D01*
X10418Y6311D01*
X10422Y6316D01*
X10427Y6321D01*
X10433Y6326D01*
X10438Y6330D01*
X10443Y6332D01*
X10447Y6335D01*
X10449Y6335D01*
X10450Y6336D01*
X10450Y6336D01*
X10451D01*
X10454Y6338D01*
X10457Y6339D01*
X10461Y6341D01*
X10466Y6342D01*
X10475Y6345D01*
X10484Y6347D01*
X10489Y6348D01*
X10493Y6349D01*
X10497Y6350D01*
X10500Y6351D01*
X10502Y6352D01*
X10505Y6352D01*
X10506Y6353D01*
X10506D01*
X10514Y6354D01*
X10520Y6356D01*
X10526Y6358D01*
X10531Y6359D01*
X10536Y6361D01*
X10540Y6362D01*
X10544Y6364D01*
X10547Y6365D01*
X10549Y6366D01*
X10552Y6367D01*
X10553Y6368D01*
X10554Y6369D01*
X10556Y6370D01*
X10557Y6371D01*
X10560Y6374D01*
X10562Y6378D01*
X10564Y6382D01*
X10565Y6385D01*
X10566Y6388D01*
X10566Y6391D01*
Y6392D01*
Y6393D01*
X10565Y6399D01*
X10564Y6404D01*
X10562Y6408D01*
X10559Y6412D01*
X10557Y6415D01*
X10555Y6418D01*
X10553Y6419D01*
X10553Y6419D01*
X10550Y6421D01*
X10547Y6423D01*
X10540Y6426D01*
X10533Y6428D01*
X10525Y6429D01*
X10519Y6430D01*
X10516Y6430D01*
X10514Y6431D01*
X10509D01*
X10498Y6430D01*
X10489Y6429D01*
X10482Y6427D01*
X10476Y6425D01*
X10471Y6422D01*
X10467Y6420D01*
X10466Y6419D01*
X10465Y6418D01*
X10460Y6413D01*
X10456Y6408D01*
X10453Y6402D01*
X10450Y6396D01*
X10449Y6391D01*
X10448Y6387D01*
X10447Y6385D01*
X10447Y6384D01*
Y6383D01*
Y6383D01*
X10415Y6385D01*
X10416Y6393D01*
X10418Y6401D01*
X10419Y6407D01*
X10422Y6413D01*
X10424Y6418D01*
X10426Y6422D01*
X10427Y6423D01*
X10427Y6424D01*
X10428Y6424D01*
Y6425D01*
X10432Y6431D01*
X10438Y6436D01*
X10443Y6441D01*
X10449Y6445D01*
X10453Y6448D01*
X10457Y6450D01*
X10458Y6450D01*
X10459Y6451D01*
X10460Y6452D01*
X10461D01*
X10469Y6454D01*
X10477Y6457D01*
X10485Y6458D01*
X10493Y6460D01*
X10500Y6460D01*
X10502D01*
X10505Y6461D01*
X10510D01*
X10519Y6460D01*
D02*
G37*
G36*
X13900Y6867D02*
X13788D01*
Y6824D01*
X13789Y6820D01*
Y6817D01*
X13789Y6814D01*
X13789Y6812D01*
Y6811D01*
X13790Y6810D01*
Y6810D01*
X13792Y6804D01*
X13793Y6801D01*
X13794Y6799D01*
X13795Y6797D01*
X13796Y6796D01*
X13796Y6795D01*
X13796Y6794D01*
X13798Y6792D01*
X13801Y6789D01*
X13806Y6783D01*
X13809Y6781D01*
X13811Y6779D01*
X13813Y6778D01*
X13813Y6777D01*
X13818Y6774D01*
X13824Y6770D01*
X13829Y6766D01*
X13835Y6762D01*
X13840Y6758D01*
X13844Y6756D01*
X13845Y6755D01*
X13846Y6754D01*
X13847Y6753D01*
X13848D01*
X13900Y6720D01*
Y6679D01*
X13832Y6722D01*
X13824Y6727D01*
X13818Y6732D01*
X13812Y6737D01*
X13807Y6741D01*
X13804Y6744D01*
X13801Y6747D01*
X13799Y6749D01*
X13798Y6750D01*
X13796Y6753D01*
X13793Y6756D01*
X13789Y6762D01*
X13788Y6765D01*
X13786Y6768D01*
X13786Y6769D01*
X13785Y6770D01*
X13784Y6763D01*
X13783Y6757D01*
X13781Y6751D01*
X13780Y6746D01*
X13778Y6741D01*
X13776Y6737D01*
X13774Y6733D01*
X13772Y6729D01*
X13770Y6726D01*
X13768Y6723D01*
X13767Y6721D01*
X13765Y6719D01*
X13764Y6718D01*
X13763Y6717D01*
X13763Y6717D01*
X13762Y6716D01*
X13759Y6713D01*
X13755Y6710D01*
X13747Y6706D01*
X13740Y6703D01*
X13733Y6701D01*
X13726Y6699D01*
X13724Y6699D01*
X13721D01*
X13719Y6699D01*
X13718D01*
X13717D01*
X13717D01*
X13709Y6699D01*
X13702Y6700D01*
X13696Y6702D01*
X13690Y6704D01*
X13686Y6706D01*
X13682Y6707D01*
X13680Y6709D01*
X13679Y6709D01*
X13679D01*
X13673Y6714D01*
X13668Y6718D01*
X13664Y6723D01*
X13660Y6727D01*
X13658Y6731D01*
X13656Y6734D01*
X13655Y6737D01*
X13655Y6737D01*
Y6737D01*
X13654Y6741D01*
X13653Y6745D01*
X13651Y6753D01*
X13650Y6761D01*
X13649Y6769D01*
X13648Y6777D01*
Y6780D01*
X13648Y6783D01*
Y6900D01*
X13900D01*
Y6867D01*
D02*
G37*
G36*
Y6612D02*
X13788D01*
Y6569D01*
X13789Y6565D01*
Y6563D01*
X13789Y6560D01*
X13789Y6558D01*
Y6557D01*
X13790Y6556D01*
Y6556D01*
X13792Y6550D01*
X13793Y6547D01*
X13794Y6545D01*
X13795Y6543D01*
X13796Y6541D01*
X13796Y6541D01*
X13796Y6540D01*
X13798Y6537D01*
X13801Y6535D01*
X13806Y6529D01*
X13809Y6527D01*
X13811Y6525D01*
X13813Y6524D01*
X13813Y6523D01*
X13818Y6520D01*
X13824Y6516D01*
X13829Y6512D01*
X13835Y6508D01*
X13840Y6504D01*
X13844Y6502D01*
X13845Y6501D01*
X13846Y6500D01*
X13847Y6499D01*
X13848D01*
X13900Y6466D01*
Y6425D01*
X13832Y6468D01*
X13824Y6473D01*
X13818Y6478D01*
X13812Y6482D01*
X13807Y6486D01*
X13804Y6490D01*
X13801Y6493D01*
X13799Y6495D01*
X13798Y6496D01*
X13796Y6499D01*
X13793Y6502D01*
X13789Y6508D01*
X13788Y6511D01*
X13786Y6513D01*
X13786Y6515D01*
X13785Y6516D01*
X13784Y6509D01*
X13783Y6503D01*
X13781Y6497D01*
X13780Y6492D01*
X13778Y6487D01*
X13776Y6483D01*
X13774Y6479D01*
X13772Y6475D01*
X13770Y6472D01*
X13768Y6469D01*
X13767Y6467D01*
X13765Y6465D01*
X13764Y6464D01*
X13763Y6463D01*
X13763Y6462D01*
X13762Y6462D01*
X13759Y6459D01*
X13755Y6456D01*
X13747Y6452D01*
X13740Y6449D01*
X13733Y6447D01*
X13726Y6445D01*
X13724Y6445D01*
X13721D01*
X13719Y6445D01*
X13718D01*
X13717D01*
X13717D01*
X13709Y6445D01*
X13702Y6446D01*
X13696Y6448D01*
X13690Y6450D01*
X13686Y6452D01*
X13682Y6453D01*
X13680Y6455D01*
X13679Y6455D01*
X13679D01*
X13673Y6460D01*
X13668Y6464D01*
X13664Y6469D01*
X13660Y6473D01*
X13658Y6477D01*
X13656Y6480D01*
X13655Y6482D01*
X13655Y6483D01*
Y6483D01*
X13654Y6486D01*
X13653Y6491D01*
X13651Y6499D01*
X13650Y6507D01*
X13649Y6515D01*
X13648Y6523D01*
Y6526D01*
X13648Y6529D01*
Y6646D01*
X13900D01*
Y6612D01*
D02*
G37*
G36*
X13678Y6328D02*
X13900D01*
Y6295D01*
X13678D01*
Y6212D01*
X13648D01*
Y6411D01*
X13678D01*
Y6328D01*
D02*
G37*
G36*
X14000Y3417D02*
X13888D01*
Y3374D01*
X13889Y3370D01*
Y3367D01*
X13889Y3364D01*
X13889Y3362D01*
Y3361D01*
X13890Y3360D01*
Y3360D01*
X13892Y3354D01*
X13893Y3351D01*
X13894Y3349D01*
X13895Y3347D01*
X13896Y3346D01*
X13896Y3345D01*
X13896Y3344D01*
X13898Y3342D01*
X13901Y3339D01*
X13906Y3333D01*
X13909Y3331D01*
X13911Y3329D01*
X13913Y3328D01*
X13913Y3327D01*
X13918Y3324D01*
X13924Y3320D01*
X13929Y3316D01*
X13935Y3312D01*
X13940Y3308D01*
X13944Y3306D01*
X13945Y3305D01*
X13946Y3304D01*
X13947Y3303D01*
X13948D01*
X14000Y3270D01*
Y3229D01*
X13932Y3272D01*
X13924Y3277D01*
X13918Y3282D01*
X13912Y3287D01*
X13907Y3291D01*
X13904Y3294D01*
X13901Y3297D01*
X13899Y3299D01*
X13898Y3300D01*
X13896Y3303D01*
X13893Y3306D01*
X13889Y3312D01*
X13888Y3315D01*
X13886Y3318D01*
X13886Y3319D01*
X13885Y3320D01*
X13884Y3313D01*
X13883Y3307D01*
X13881Y3301D01*
X13880Y3296D01*
X13878Y3291D01*
X13876Y3287D01*
X13874Y3283D01*
X13872Y3279D01*
X13870Y3276D01*
X13868Y3273D01*
X13867Y3271D01*
X13865Y3269D01*
X13864Y3268D01*
X13863Y3267D01*
X13863Y3267D01*
X13862Y3266D01*
X13859Y3263D01*
X13855Y3260D01*
X13847Y3256D01*
X13840Y3253D01*
X13833Y3251D01*
X13826Y3249D01*
X13824Y3249D01*
X13821D01*
X13819Y3249D01*
X13818D01*
X13817D01*
X13817D01*
X13809Y3249D01*
X13802Y3250D01*
X13796Y3252D01*
X13790Y3254D01*
X13786Y3256D01*
X13782Y3257D01*
X13780Y3259D01*
X13779Y3259D01*
X13779D01*
X13773Y3264D01*
X13768Y3268D01*
X13764Y3273D01*
X13760Y3277D01*
X13758Y3281D01*
X13756Y3284D01*
X13755Y3287D01*
X13755Y3287D01*
Y3287D01*
X13754Y3291D01*
X13753Y3295D01*
X13751Y3303D01*
X13750Y3311D01*
X13749Y3319D01*
X13748Y3327D01*
Y3330D01*
X13748Y3333D01*
Y3450D01*
X14000D01*
Y3417D01*
D02*
G37*
G36*
Y3162D02*
X13888D01*
Y3119D01*
X13889Y3115D01*
Y3113D01*
X13889Y3110D01*
X13889Y3108D01*
Y3107D01*
X13890Y3106D01*
Y3106D01*
X13892Y3100D01*
X13893Y3097D01*
X13894Y3095D01*
X13895Y3093D01*
X13896Y3091D01*
X13896Y3091D01*
X13896Y3090D01*
X13898Y3087D01*
X13901Y3085D01*
X13906Y3079D01*
X13909Y3077D01*
X13911Y3075D01*
X13913Y3074D01*
X13913Y3073D01*
X13918Y3070D01*
X13924Y3066D01*
X13929Y3062D01*
X13935Y3058D01*
X13940Y3054D01*
X13944Y3052D01*
X13945Y3051D01*
X13946Y3050D01*
X13947Y3049D01*
X13948D01*
X14000Y3016D01*
Y2975D01*
X13932Y3018D01*
X13924Y3023D01*
X13918Y3028D01*
X13912Y3033D01*
X13907Y3036D01*
X13904Y3040D01*
X13901Y3043D01*
X13899Y3045D01*
X13898Y3046D01*
X13896Y3049D01*
X13893Y3052D01*
X13889Y3058D01*
X13888Y3061D01*
X13886Y3063D01*
X13886Y3065D01*
X13885Y3066D01*
X13884Y3059D01*
X13883Y3053D01*
X13881Y3047D01*
X13880Y3042D01*
X13878Y3037D01*
X13876Y3033D01*
X13874Y3029D01*
X13872Y3025D01*
X13870Y3022D01*
X13868Y3019D01*
X13867Y3017D01*
X13865Y3015D01*
X13864Y3014D01*
X13863Y3013D01*
X13863Y3012D01*
X13862Y3012D01*
X13859Y3009D01*
X13855Y3006D01*
X13847Y3002D01*
X13840Y2999D01*
X13833Y2997D01*
X13826Y2995D01*
X13824Y2995D01*
X13821D01*
X13819Y2995D01*
X13818D01*
X13817D01*
X13817D01*
X13809Y2995D01*
X13802Y2996D01*
X13796Y2998D01*
X13790Y3000D01*
X13786Y3002D01*
X13782Y3003D01*
X13780Y3005D01*
X13779Y3005D01*
X13779D01*
X13773Y3010D01*
X13768Y3014D01*
X13764Y3019D01*
X13760Y3023D01*
X13758Y3027D01*
X13756Y3030D01*
X13755Y3033D01*
X13755Y3033D01*
Y3033D01*
X13754Y3036D01*
X13753Y3040D01*
X13751Y3049D01*
X13750Y3057D01*
X13749Y3065D01*
X13748Y3073D01*
Y3076D01*
X13748Y3079D01*
Y3196D01*
X14000D01*
Y3162D01*
D02*
G37*
G36*
Y2848D02*
X14000Y2839D01*
X13999Y2831D01*
X13999Y2824D01*
X13998Y2818D01*
X13997Y2814D01*
X13997Y2810D01*
X13996Y2808D01*
Y2807D01*
X13994Y2801D01*
X13992Y2796D01*
X13990Y2791D01*
X13988Y2787D01*
X13987Y2784D01*
X13985Y2781D01*
X13984Y2780D01*
X13984Y2780D01*
X13980Y2776D01*
X13976Y2772D01*
X13972Y2769D01*
X13969Y2766D01*
X13965Y2764D01*
X13963Y2762D01*
X13961Y2761D01*
X13960Y2761D01*
X13954Y2758D01*
X13948Y2757D01*
X13943Y2755D01*
X13938Y2754D01*
X13933Y2754D01*
X13930Y2753D01*
X13928D01*
X13927D01*
X13927D01*
X13919Y2754D01*
X13912Y2755D01*
X13905Y2757D01*
X13900Y2760D01*
X13895Y2762D01*
X13892Y2764D01*
X13890Y2765D01*
X13889Y2766D01*
X13883Y2771D01*
X13878Y2776D01*
X13874Y2782D01*
X13871Y2788D01*
X13869Y2793D01*
X13867Y2797D01*
X13866Y2799D01*
X13866Y2800D01*
X13866Y2801D01*
Y2801D01*
X13862Y2795D01*
X13858Y2789D01*
X13854Y2785D01*
X13851Y2781D01*
X13848Y2778D01*
X13845Y2776D01*
X13843Y2775D01*
X13843Y2775D01*
X13837Y2772D01*
X13832Y2770D01*
X13827Y2768D01*
X13822Y2767D01*
X13818Y2766D01*
X13815Y2766D01*
X13813D01*
X13813D01*
X13806Y2766D01*
X13800Y2767D01*
X13795Y2769D01*
X13790Y2771D01*
X13785Y2773D01*
X13782Y2774D01*
X13780Y2776D01*
X13779Y2776D01*
X13774Y2780D01*
X13769Y2784D01*
X13765Y2789D01*
X13762Y2793D01*
X13759Y2797D01*
X13757Y2800D01*
X13756Y2802D01*
X13756Y2803D01*
Y2803D01*
X13753Y2810D01*
X13751Y2818D01*
X13750Y2825D01*
X13749Y2833D01*
X13748Y2839D01*
Y2842D01*
X13748Y2845D01*
Y2944D01*
X14000D01*
Y2848D01*
D02*
G37*
G36*
X5052Y5031D02*
X5022D01*
Y5114D01*
X4800D01*
Y5147D01*
X5022D01*
Y5230D01*
X5052D01*
Y5031D01*
D02*
G37*
G36*
X4830Y4886D02*
X5052D01*
Y4852D01*
X4800D01*
Y5010D01*
X4830D01*
Y4886D01*
D02*
G37*
G36*
X4868Y4778D02*
X4876Y4773D01*
X4882Y4768D01*
X4888Y4763D01*
X4893Y4759D01*
X4896Y4756D01*
X4899Y4753D01*
X4901Y4751D01*
X4902Y4750D01*
X4904Y4747D01*
X4907Y4744D01*
X4911Y4738D01*
X4912Y4735D01*
X4914Y4732D01*
X4914Y4731D01*
X4915Y4730D01*
X4916Y4737D01*
X4917Y4743D01*
X4919Y4749D01*
X4920Y4754D01*
X4922Y4759D01*
X4924Y4763D01*
X4926Y4767D01*
X4928Y4771D01*
X4930Y4774D01*
X4932Y4777D01*
X4933Y4779D01*
X4935Y4781D01*
X4936Y4782D01*
X4937Y4783D01*
X4937Y4783D01*
X4938Y4784D01*
X4941Y4787D01*
X4945Y4790D01*
X4953Y4794D01*
X4960Y4797D01*
X4967Y4799D01*
X4974Y4801D01*
X4976Y4801D01*
X4979D01*
X4981Y4801D01*
X4982D01*
X4983D01*
X4983D01*
X4991Y4801D01*
X4998Y4800D01*
X5004Y4798D01*
X5010Y4796D01*
X5014Y4794D01*
X5018Y4793D01*
X5020Y4791D01*
X5021Y4791D01*
X5021D01*
X5027Y4786D01*
X5032Y4782D01*
X5036Y4777D01*
X5040Y4773D01*
X5042Y4769D01*
X5044Y4766D01*
X5045Y4763D01*
X5045Y4763D01*
Y4763D01*
X5046Y4759D01*
X5047Y4755D01*
X5049Y4747D01*
X5050Y4739D01*
X5051Y4731D01*
X5052Y4723D01*
Y4720D01*
X5052Y4717D01*
Y4600D01*
X4800D01*
Y4633D01*
X4912D01*
Y4676D01*
X4911Y4680D01*
Y4683D01*
X4911Y4686D01*
X4911Y4688D01*
Y4689D01*
X4910Y4690D01*
Y4690D01*
X4908Y4696D01*
X4907Y4699D01*
X4906Y4701D01*
X4905Y4703D01*
X4904Y4704D01*
X4904Y4705D01*
X4904Y4706D01*
X4902Y4708D01*
X4899Y4711D01*
X4894Y4717D01*
X4891Y4719D01*
X4889Y4721D01*
X4887Y4722D01*
X4887Y4723D01*
X4882Y4726D01*
X4876Y4730D01*
X4871Y4734D01*
X4865Y4738D01*
X4860Y4742D01*
X4856Y4744D01*
X4855Y4745D01*
X4854Y4746D01*
X4853Y4747D01*
X4852D01*
X4800Y4780D01*
Y4821D01*
X4868Y4778D01*
D02*
G37*
G36*
X4981Y1688D02*
X4988Y1687D01*
X4995Y1684D01*
X5000Y1682D01*
X5005Y1680D01*
X5008Y1678D01*
X5010Y1676D01*
X5011Y1676D01*
X5017Y1671D01*
X5022Y1666D01*
X5026Y1659D01*
X5029Y1654D01*
X5031Y1649D01*
X5033Y1644D01*
X5034Y1643D01*
X5034Y1642D01*
X5034Y1641D01*
Y1641D01*
X5038Y1647D01*
X5042Y1652D01*
X5046Y1657D01*
X5049Y1660D01*
X5052Y1663D01*
X5055Y1666D01*
X5057Y1667D01*
X5057Y1667D01*
X5063Y1670D01*
X5068Y1672D01*
X5073Y1674D01*
X5078Y1675D01*
X5082Y1676D01*
X5085Y1676D01*
X5087D01*
X5087D01*
X5094Y1676D01*
X5100Y1675D01*
X5105Y1673D01*
X5110Y1671D01*
X5115Y1669D01*
X5118Y1667D01*
X5120Y1666D01*
X5121Y1666D01*
X5126Y1662D01*
X5131Y1658D01*
X5135Y1653D01*
X5138Y1648D01*
X5141Y1645D01*
X5143Y1641D01*
X5144Y1639D01*
X5144Y1639D01*
Y1639D01*
X5147Y1632D01*
X5149Y1624D01*
X5150Y1616D01*
X5151Y1609D01*
X5152Y1603D01*
Y1600D01*
X5152Y1597D01*
Y1498D01*
X4900D01*
Y1594D01*
X4900Y1603D01*
X4901Y1611D01*
X4901Y1617D01*
X4902Y1623D01*
X4903Y1628D01*
X4903Y1632D01*
X4904Y1634D01*
Y1635D01*
X4906Y1641D01*
X4908Y1646D01*
X4910Y1651D01*
X4912Y1655D01*
X4913Y1658D01*
X4915Y1660D01*
X4916Y1662D01*
X4916Y1662D01*
X4920Y1666D01*
X4924Y1670D01*
X4928Y1673D01*
X4931Y1676D01*
X4935Y1678D01*
X4937Y1679D01*
X4939Y1680D01*
X4940Y1681D01*
X4946Y1683D01*
X4952Y1685D01*
X4957Y1687D01*
X4962Y1687D01*
X4967Y1688D01*
X4970Y1688D01*
X4972D01*
X4973D01*
X4973D01*
X4981Y1688D01*
D02*
G37*
G36*
X4930Y1336D02*
X5152D01*
Y1302D01*
X4900D01*
Y1460D01*
X4930D01*
Y1336D01*
D02*
G37*
G36*
X4968Y1228D02*
X4976Y1223D01*
X4982Y1218D01*
X4988Y1213D01*
X4993Y1209D01*
X4996Y1206D01*
X4999Y1203D01*
X5001Y1201D01*
X5002Y1200D01*
X5004Y1197D01*
X5007Y1194D01*
X5011Y1188D01*
X5012Y1185D01*
X5014Y1182D01*
X5014Y1181D01*
X5015Y1180D01*
X5016Y1187D01*
X5017Y1193D01*
X5019Y1199D01*
X5020Y1204D01*
X5022Y1209D01*
X5024Y1213D01*
X5026Y1217D01*
X5028Y1221D01*
X5030Y1224D01*
X5032Y1227D01*
X5033Y1229D01*
X5035Y1231D01*
X5036Y1232D01*
X5037Y1233D01*
X5037Y1233D01*
X5038Y1234D01*
X5041Y1237D01*
X5045Y1240D01*
X5053Y1244D01*
X5060Y1247D01*
X5067Y1249D01*
X5074Y1251D01*
X5076Y1251D01*
X5079D01*
X5081Y1251D01*
X5082D01*
X5083D01*
X5083D01*
X5091Y1251D01*
X5098Y1250D01*
X5104Y1248D01*
X5110Y1246D01*
X5114Y1244D01*
X5118Y1243D01*
X5120Y1241D01*
X5121Y1241D01*
X5121D01*
X5127Y1236D01*
X5132Y1232D01*
X5136Y1227D01*
X5140Y1223D01*
X5142Y1219D01*
X5144Y1216D01*
X5145Y1213D01*
X5145Y1213D01*
Y1213D01*
X5146Y1209D01*
X5147Y1205D01*
X5149Y1197D01*
X5150Y1189D01*
X5151Y1181D01*
X5152Y1173D01*
Y1170D01*
X5152Y1167D01*
Y1050D01*
X4900D01*
Y1083D01*
X5012D01*
Y1126D01*
X5011Y1130D01*
Y1133D01*
X5011Y1136D01*
X5011Y1138D01*
Y1139D01*
X5010Y1140D01*
Y1140D01*
X5008Y1146D01*
X5007Y1149D01*
X5006Y1151D01*
X5005Y1153D01*
X5004Y1154D01*
X5004Y1155D01*
X5004Y1156D01*
X5002Y1158D01*
X4999Y1161D01*
X4994Y1167D01*
X4991Y1169D01*
X4989Y1171D01*
X4987Y1172D01*
X4987Y1173D01*
X4982Y1176D01*
X4976Y1180D01*
X4971Y1184D01*
X4965Y1188D01*
X4960Y1192D01*
X4956Y1194D01*
X4955Y1195D01*
X4954Y1196D01*
X4953Y1197D01*
X4952D01*
X4900Y1230D01*
Y1271D01*
X4968Y1228D01*
D02*
G37*
%LPC*%
G36*
X10817Y6428D02*
X10737D01*
X10727Y6428D01*
X10719Y6426D01*
X10712Y6425D01*
X10706Y6422D01*
X10701Y6420D01*
X10699Y6418D01*
X10697Y6417D01*
X10696Y6417D01*
X10692Y6412D01*
X10688Y6407D01*
X10686Y6402D01*
X10684Y6398D01*
X10684Y6393D01*
X10683Y6390D01*
X10683Y6388D01*
Y6387D01*
Y6387D01*
X10683Y6383D01*
X10684Y6378D01*
X10685Y6375D01*
X10686Y6371D01*
X10688Y6369D01*
X10689Y6366D01*
X10689Y6365D01*
X10690Y6365D01*
X10692Y6361D01*
X10696Y6358D01*
X10699Y6355D01*
X10702Y6353D01*
X10705Y6351D01*
X10707Y6350D01*
X10709Y6350D01*
X10710Y6349D01*
X10715Y6348D01*
X10720Y6347D01*
X10726Y6346D01*
X10732Y6346D01*
X10737Y6345D01*
X10742Y6345D01*
X10817D01*
Y6428D01*
D02*
G37*
G36*
X13759Y6867D02*
X13676D01*
Y6787D01*
X13677Y6777D01*
X13678Y6769D01*
X13680Y6762D01*
X13682Y6756D01*
X13684Y6751D01*
X13686Y6749D01*
X13687Y6747D01*
X13688Y6746D01*
X13693Y6742D01*
X13697Y6738D01*
X13702Y6736D01*
X13707Y6734D01*
X13711Y6734D01*
X13714Y6733D01*
X13717Y6733D01*
X13717D01*
X13717D01*
X13722Y6733D01*
X13726Y6734D01*
X13730Y6735D01*
X13733Y6736D01*
X13736Y6738D01*
X13738Y6739D01*
X13739Y6739D01*
X13740Y6740D01*
X13743Y6742D01*
X13747Y6746D01*
X13749Y6749D01*
X13751Y6752D01*
X13753Y6755D01*
X13754Y6757D01*
X13755Y6759D01*
X13755Y6759D01*
X13757Y6765D01*
X13758Y6770D01*
X13758Y6776D01*
X13759Y6782D01*
X13759Y6787D01*
X13759Y6792D01*
Y6867D01*
D02*
G37*
G36*
Y6612D02*
X13676D01*
Y6533D01*
X13677Y6523D01*
X13678Y6515D01*
X13680Y6508D01*
X13682Y6502D01*
X13684Y6497D01*
X13686Y6495D01*
X13687Y6493D01*
X13688Y6492D01*
X13693Y6488D01*
X13697Y6484D01*
X13702Y6482D01*
X13707Y6480D01*
X13711Y6480D01*
X13714Y6479D01*
X13717Y6479D01*
X13717D01*
X13717D01*
X13722Y6479D01*
X13726Y6480D01*
X13730Y6481D01*
X13733Y6482D01*
X13736Y6484D01*
X13738Y6485D01*
X13739Y6485D01*
X13740Y6486D01*
X13743Y6488D01*
X13747Y6492D01*
X13749Y6495D01*
X13751Y6498D01*
X13753Y6501D01*
X13754Y6503D01*
X13755Y6505D01*
X13755Y6505D01*
X13757Y6511D01*
X13758Y6516D01*
X13758Y6522D01*
X13759Y6528D01*
X13759Y6533D01*
X13759Y6537D01*
Y6612D01*
D02*
G37*
G36*
X13859Y3417D02*
X13776D01*
Y3337D01*
X13777Y3327D01*
X13778Y3319D01*
X13780Y3312D01*
X13782Y3306D01*
X13784Y3301D01*
X13786Y3299D01*
X13787Y3297D01*
X13788Y3296D01*
X13793Y3292D01*
X13797Y3288D01*
X13802Y3286D01*
X13807Y3284D01*
X13811Y3284D01*
X13814Y3283D01*
X13817Y3283D01*
X13817D01*
X13817D01*
X13822Y3283D01*
X13826Y3284D01*
X13830Y3285D01*
X13833Y3286D01*
X13836Y3288D01*
X13838Y3289D01*
X13839Y3289D01*
X13840Y3290D01*
X13843Y3292D01*
X13847Y3296D01*
X13849Y3299D01*
X13851Y3302D01*
X13853Y3305D01*
X13854Y3307D01*
X13855Y3309D01*
X13855Y3309D01*
X13857Y3315D01*
X13858Y3320D01*
X13858Y3326D01*
X13859Y3332D01*
X13859Y3337D01*
X13859Y3342D01*
Y3417D01*
D02*
G37*
G36*
Y3162D02*
X13776D01*
Y3083D01*
X13777Y3073D01*
X13778Y3065D01*
X13780Y3058D01*
X13782Y3052D01*
X13784Y3047D01*
X13786Y3045D01*
X13787Y3043D01*
X13788Y3042D01*
X13793Y3038D01*
X13797Y3034D01*
X13802Y3032D01*
X13807Y3030D01*
X13811Y3030D01*
X13814Y3029D01*
X13817Y3029D01*
X13817D01*
X13817D01*
X13822Y3029D01*
X13826Y3030D01*
X13830Y3031D01*
X13833Y3032D01*
X13836Y3034D01*
X13838Y3035D01*
X13839Y3035D01*
X13840Y3036D01*
X13843Y3038D01*
X13847Y3042D01*
X13849Y3045D01*
X13851Y3048D01*
X13853Y3051D01*
X13854Y3053D01*
X13855Y3055D01*
X13855Y3055D01*
X13857Y3061D01*
X13858Y3066D01*
X13858Y3072D01*
X13859Y3078D01*
X13859Y3083D01*
X13859Y3087D01*
Y3162D01*
D02*
G37*
G36*
X13854Y2910D02*
X13778D01*
Y2851D01*
X13779Y2842D01*
X13779Y2836D01*
X13780Y2831D01*
X13781Y2827D01*
X13781Y2824D01*
X13782Y2822D01*
Y2822D01*
X13783Y2818D01*
X13785Y2814D01*
X13787Y2812D01*
X13790Y2809D01*
X13791Y2807D01*
X13793Y2806D01*
X13794Y2805D01*
X13795Y2805D01*
X13798Y2802D01*
X13802Y2801D01*
X13806Y2800D01*
X13809Y2799D01*
X13812Y2799D01*
X13814Y2798D01*
X13816D01*
X13817D01*
X13821Y2799D01*
X13826Y2800D01*
X13829Y2801D01*
X13832Y2802D01*
X13835Y2803D01*
X13837Y2804D01*
X13838Y2805D01*
X13838Y2805D01*
X13841Y2808D01*
X13844Y2811D01*
X13846Y2814D01*
X13848Y2817D01*
X13849Y2820D01*
X13850Y2822D01*
X13851Y2824D01*
X13851Y2824D01*
X13852Y2828D01*
X13853Y2833D01*
X13853Y2838D01*
X13853Y2844D01*
X13854Y2848D01*
Y2910D01*
D02*
G37*
G36*
X13970D02*
X13884D01*
Y2844D01*
X13884Y2836D01*
X13885Y2830D01*
X13886Y2825D01*
X13886Y2821D01*
X13887Y2818D01*
X13888Y2816D01*
X13888Y2816D01*
X13890Y2811D01*
X13892Y2807D01*
X13894Y2803D01*
X13897Y2800D01*
X13899Y2798D01*
X13901Y2797D01*
X13902Y2796D01*
X13903Y2795D01*
X13907Y2793D01*
X13911Y2791D01*
X13915Y2789D01*
X13918Y2789D01*
X13922Y2788D01*
X13925Y2788D01*
X13926D01*
X13927D01*
X13931Y2788D01*
X13936Y2788D01*
X13939Y2789D01*
X13942Y2790D01*
X13945Y2791D01*
X13947Y2792D01*
X13948Y2792D01*
X13948Y2793D01*
X13952Y2795D01*
X13954Y2797D01*
X13957Y2799D01*
X13959Y2801D01*
X13960Y2803D01*
X13961Y2804D01*
X13962Y2805D01*
X13963Y2806D01*
X13965Y2812D01*
X13968Y2818D01*
X13968Y2821D01*
X13969Y2823D01*
X13969Y2824D01*
Y2825D01*
X13969Y2828D01*
X13970Y2831D01*
X13970Y2838D01*
Y2910D01*
D02*
G37*
G36*
X4983Y4767D02*
X4983D01*
X4983D01*
X4978Y4767D01*
X4974Y4766D01*
X4970Y4765D01*
X4967Y4764D01*
X4964Y4762D01*
X4962Y4761D01*
X4961Y4761D01*
X4960Y4760D01*
X4957Y4758D01*
X4953Y4754D01*
X4951Y4751D01*
X4949Y4748D01*
X4947Y4745D01*
X4946Y4743D01*
X4945Y4741D01*
X4945Y4740D01*
X4943Y4735D01*
X4942Y4730D01*
X4942Y4724D01*
X4941Y4718D01*
X4941Y4713D01*
X4940Y4708D01*
Y4633D01*
X5024D01*
Y4713D01*
X5023Y4723D01*
X5022Y4731D01*
X5020Y4738D01*
X5018Y4744D01*
X5016Y4749D01*
X5014Y4751D01*
X5013Y4753D01*
X5012Y4754D01*
X5007Y4758D01*
X5003Y4762D01*
X4998Y4764D01*
X4993Y4766D01*
X4989Y4766D01*
X4986Y4767D01*
X4983Y4767D01*
D02*
G37*
G36*
X5086Y1643D02*
X5084D01*
X5083D01*
X5079Y1643D01*
X5074Y1642D01*
X5071Y1641D01*
X5068Y1640D01*
X5065Y1639D01*
X5063Y1638D01*
X5062Y1637D01*
X5062Y1637D01*
X5059Y1634D01*
X5056Y1631D01*
X5054Y1628D01*
X5052Y1625D01*
X5051Y1622D01*
X5050Y1620D01*
X5049Y1618D01*
X5049Y1617D01*
X5048Y1613D01*
X5047Y1608D01*
X5047Y1603D01*
X5047Y1598D01*
X5046Y1593D01*
Y1532D01*
X5122D01*
Y1591D01*
X5121Y1599D01*
X5121Y1605D01*
X5120Y1611D01*
X5119Y1615D01*
X5119Y1617D01*
X5118Y1619D01*
Y1620D01*
X5117Y1624D01*
X5115Y1627D01*
X5113Y1630D01*
X5110Y1633D01*
X5109Y1635D01*
X5107Y1636D01*
X5106Y1637D01*
X5105Y1637D01*
X5102Y1639D01*
X5098Y1641D01*
X5094Y1642D01*
X5091Y1643D01*
X5088Y1643D01*
X5086Y1643D01*
D02*
G37*
G36*
X4975Y1654D02*
X4974D01*
X4973D01*
X4969Y1654D01*
X4964Y1654D01*
X4961Y1653D01*
X4958Y1652D01*
X4955Y1651D01*
X4953Y1650D01*
X4952Y1649D01*
X4952Y1649D01*
X4948Y1647D01*
X4945Y1645D01*
X4943Y1643D01*
X4941Y1641D01*
X4940Y1639D01*
X4939Y1637D01*
X4938Y1636D01*
X4937Y1636D01*
X4935Y1630D01*
X4932Y1624D01*
X4932Y1621D01*
X4931Y1619D01*
X4931Y1617D01*
Y1617D01*
X4931Y1614D01*
X4930Y1611D01*
X4930Y1603D01*
Y1532D01*
X5016D01*
Y1598D01*
X5016Y1605D01*
X5015Y1612D01*
X5014Y1617D01*
X5014Y1621D01*
X5013Y1624D01*
X5012Y1625D01*
X5012Y1626D01*
X5010Y1631D01*
X5008Y1635D01*
X5006Y1639D01*
X5003Y1641D01*
X5001Y1644D01*
X4999Y1645D01*
X4998Y1646D01*
X4997Y1647D01*
X4993Y1649D01*
X4989Y1651D01*
X4985Y1652D01*
X4982Y1653D01*
X4978Y1654D01*
X4975Y1654D01*
D02*
G37*
G36*
X5083Y1217D02*
X5083D01*
X5083D01*
X5078Y1217D01*
X5074Y1216D01*
X5070Y1215D01*
X5067Y1214D01*
X5064Y1212D01*
X5062Y1211D01*
X5061Y1211D01*
X5060Y1210D01*
X5057Y1208D01*
X5053Y1204D01*
X5051Y1201D01*
X5049Y1198D01*
X5047Y1195D01*
X5046Y1193D01*
X5045Y1191D01*
X5045Y1191D01*
X5043Y1185D01*
X5042Y1180D01*
X5042Y1174D01*
X5041Y1168D01*
X5041Y1163D01*
X5041Y1158D01*
Y1083D01*
X5124D01*
Y1163D01*
X5123Y1173D01*
X5122Y1181D01*
X5120Y1188D01*
X5118Y1194D01*
X5116Y1199D01*
X5114Y1201D01*
X5113Y1203D01*
X5112Y1204D01*
X5107Y1208D01*
X5103Y1212D01*
X5098Y1214D01*
X5093Y1216D01*
X5089Y1216D01*
X5086Y1217D01*
X5083Y1217D01*
D02*
G37*
%LPD*%
D38*
X11598Y5806D02*
Y6594D01*
X10102Y5806D02*
X11598D01*
X10102D02*
Y6594D01*
X11598D01*
X13506Y7648D02*
X14294D01*
Y6152D02*
Y7648D01*
X13506Y6152D02*
X14294D01*
X13506D02*
Y7648D01*
X13606Y4198D02*
X14394D01*
Y2702D02*
Y4198D01*
X13606Y2702D02*
X14394D01*
X13606D02*
Y4198D01*
X4406Y3852D02*
X5194D01*
X4406D02*
Y5348D01*
X5194D01*
Y3852D02*
Y5348D01*
X4506Y302D02*
X5294D01*
X4506D02*
Y1798D01*
X5294D01*
Y302D02*
Y1798D01*
M02*
