G04*
G04 #@! TF.GenerationSoftware,Altium Limited,Altium Designer,22.2.1 (43)*
G04*
G04 Layer_Color=8388736*
%FSLAX24Y24*%
%MOIN*%
G70*
G04*
G04 #@! TF.SameCoordinates,757E67FC-675A-4625-AC2D-E40298A33DAC*
G04*
G04*
G04 #@! TF.FilePolarity,Negative*
G04*
G01*
G75*
G04:AMPARAMS|DCode=13|XSize=124mil|YSize=80.7mil|CornerRadius=14.2mil|HoleSize=0mil|Usage=FLASHONLY|Rotation=180.000|XOffset=0mil|YOffset=0mil|HoleType=Round|Shape=RoundedRectangle|*
%AMROUNDEDRECTD13*
21,1,0.1240,0.0524,0,0,180.0*
21,1,0.0957,0.0807,0,0,180.0*
1,1,0.0283,-0.0478,0.0262*
1,1,0.0283,0.0478,0.0262*
1,1,0.0283,0.0478,-0.0262*
1,1,0.0283,-0.0478,-0.0262*
%
%ADD13ROUNDEDRECTD13*%
G04:AMPARAMS|DCode=14|XSize=124mil|YSize=80.7mil|CornerRadius=14.2mil|HoleSize=0mil|Usage=FLASHONLY|Rotation=270.000|XOffset=0mil|YOffset=0mil|HoleType=Round|Shape=RoundedRectangle|*
%AMROUNDEDRECTD14*
21,1,0.1240,0.0524,0,0,270.0*
21,1,0.0957,0.0807,0,0,270.0*
1,1,0.0283,-0.0262,-0.0478*
1,1,0.0283,-0.0262,0.0478*
1,1,0.0283,0.0262,0.0478*
1,1,0.0283,0.0262,-0.0478*
%
%ADD14ROUNDEDRECTD14*%
%ADD15C,0.0659*%
%ADD16C,0.1122*%
D13*
X12716Y900D02*
D03*
Y7900D02*
D03*
Y3900D02*
D03*
Y4900D02*
D03*
Y5900D02*
D03*
Y6900D02*
D03*
Y2900D02*
D03*
Y1900D02*
D03*
X6284Y7900D02*
D03*
Y6900D02*
D03*
Y5900D02*
D03*
Y4900D02*
D03*
Y3900D02*
D03*
Y2900D02*
D03*
Y1900D02*
D03*
Y900D02*
D03*
D14*
X8500Y8073D02*
D03*
X10500D02*
D03*
X9500D02*
D03*
D15*
X12716Y900D02*
D03*
Y1900D02*
D03*
Y2900D02*
D03*
Y3900D02*
D03*
Y4900D02*
D03*
Y5900D02*
D03*
Y6900D02*
D03*
Y7900D02*
D03*
X6284D02*
D03*
Y6900D02*
D03*
Y5900D02*
D03*
Y3900D02*
D03*
Y2900D02*
D03*
Y1900D02*
D03*
Y900D02*
D03*
Y4900D02*
D03*
X14173Y9843D02*
D03*
X4724D02*
D03*
D16*
X8350Y9800D02*
D03*
X10318D02*
D03*
M02*
