M48
;Layer_Color=9474304
;FILE_FORMAT=2:4
INCH,TZ
;TYPE=PLATED
T1F00S00C0.0280
T2F00S00C0.0500
T3F00S00C0.0709
T4F00S00C0.1299
%
T01
X4000Y1400
X4950Y1045
Y3500
X4050Y5200
X7875Y6125
X11550Y5300
X13700Y4500
X14850Y2850
X14830Y6250
X14700Y7350
T02
X6284Y900
Y1900
Y2900
Y3900
Y4900
Y5900
Y6900
Y7900
X12716
Y6900
Y5900
Y4900
Y3900
Y2900
Y1900
Y900
T03
X8350Y9800
X10318
T04
X4724Y9843
X14173
M30
